# xmcd
#
# Track frame offsets:
#	150
#	13319
#	33300
#	52213
#	71549
#
# Disc length: 1181 seconds
# Revision: 0
# Processed by: cddbd v1.5.2PL0 Copyright (c) Steve Scherf et al.
# Submitted via: dBpowerAMP V12.0
#
DISCID=43049b05
DTITLE=Grotesquary - Cult of the Grotesque
DYEAR=2013
DGENRE=Metal
TTITLE0=State of Necrocracy
TTITLE1=In Blood Possessed
TTITLE2=Zombie Infection
TTITLE3=Cult of the Grotesque
TTITLE4=Raining Blood [excerpt, bonus]
EXTD=
EXTT0=
EXTT1=
EXTT2=
EXTT3=
EXTT4=
PLAYORDER=
